<svg id="visual" viewBox="0 0 960 300" width="960" height="300" xmlns="http://www.w3.org/2000/svg" xmlns:xlink="http://www.w3.org/1999/xlink" version="1.1"><path d="M0 84L22.8 77C45.7 70 91.3 56 137 53.3C182.7 50.7 228.3 59.3 274 68.2C319.7 77 365.3 86 411.2 84.3C457 82.7 503 70.3 548.8 62.3C594.7 54.3 640.3 50.7 686 51.7C731.7 52.7 777.3 58.3 823 60.5C868.7 62.7 914.3 61.3 937.2 60.7L960 60L960 0L937.2 0C914.3 0 868.7 0 823 0C777.3 0 731.7 0 686 0C640.3 0 594.7 0 548.8 0C503 0 457 0 411.2 0C365.3 0 319.7 0 274 0C228.3 0 182.7 0 137 0C91.3 0 45.7 0 22.8 0L0 0Z" fill="#002152" stroke-linecap="round" stroke-linejoin="miter"></path></svg>